<svg width="156" height="41" viewBox="0 0 156 41" fill="none" xmlns="http://www.w3.org/2000/svg">
<path d="M37.774 12.4516L22.5407 19.5312V34.967C22.5407 38.2925 19.9244 41 16.7068 41C16.2389 41 15.7722 40.9431 15.319 40.8281L15.2688 40.8155C14.2571 40.5589 13.2393 40.21 12.2545 39.7815C9.86484 38.7375 7.71892 37.246 5.87799 35.3449C4.03829 33.4489 2.59053 31.2344 1.57882 28.7671C0.531581 26.2113 0 23.4988 0 20.7041C0 17.9095 0.531581 15.1969 1.57882 12.6437C2.58563 10.1827 4.03339 7.97071 5.87554 6.06335C7.72014 4.16231 9.86728 2.66828 12.2545 1.62928C14.7262 0.548573 17.3547 0 20.0653 0C21.6441 0 23.218 0.189598 24.7454 0.565003C25.5881 0.772297 26.4393 1.04785 27.2747 1.37649C28.0659 1.69501 28.6428 2.39273 28.8192 3.24719C28.9907 4.09406 28.7396 4.96621 28.1455 5.57672C27.6801 6.05956 27.0615 6.32373 26.4001 6.32373C26.0866 6.32373 25.7804 6.26433 25.4901 6.14678C23.8659 5.49962 22.1573 5.15076 20.4168 5.11284C20.3029 5.11031 20.1878 5.11031 20.0763 5.11031H20.0665C15.9266 5.11031 12.0548 6.82175 9.16668 9.92989C6.27974 13.0406 4.78789 17.1081 4.96671 21.3804C5.24965 28.2994 10.002 34.2579 16.5255 35.8745C16.5904 35.8897 16.6627 35.8973 16.7288 35.8973C17.2041 35.8973 17.5887 35.4941 17.5887 34.9986V21.8341L11.887 24.4847H11.8552C11.5992 24.5745 11.3334 24.6187 11.064 24.6187C10.8998 24.6187 10.7332 24.601 10.5691 24.5669C9.81339 24.4127 9.16423 23.8894 8.83352 23.1689C8.67184 22.82 8.58978 22.4472 8.58978 22.068C8.58978 21.0644 9.16178 20.148 10.0473 19.7384C10.0473 19.7384 35.715 7.81019 35.7677 7.78491C36.0959 7.64081 36.4242 7.57129 36.7573 7.57129C36.8823 7.57129 37.0084 7.5814 37.1358 7.5991C37.7678 7.70148 38.3447 8.05287 38.722 8.56605C39.2462 9.27894 39.376 10.2004 39.0723 11.0296C38.8359 11.6691 38.3766 12.1709 37.774 12.4516Z" fill="white"/>
<path d="M40.1298 20.7047C40.1298 23.5019 39.5982 26.2145 38.551 28.7677C37.5417 31.2338 36.0939 33.4483 34.2518 35.3455C33.0613 36.5779 31.7225 37.6498 30.2809 38.5308C29.9048 38.7621 29.4774 38.8821 29.0426 38.8821C28.0186 38.8821 27.0828 38.2148 26.7203 37.2238C26.6137 36.9293 26.5586 36.6234 26.5586 36.315C26.5586 35.4213 27.0191 34.5833 27.7577 34.1283C32.3361 31.3109 35.1802 26.1677 35.1802 20.7047C35.1802 20.6251 35.1802 20.5429 35.1778 20.4633C35.168 19.7681 35.4191 19.1159 35.8894 18.6255C36.3573 18.1325 36.9832 17.8633 37.6519 17.8633C38.3207 17.8633 38.9245 18.1249 39.39 18.6002C39.853 19.0704 40.1163 19.7011 40.1286 20.3786C40.131 20.4861 40.131 20.5948 40.131 20.7047H40.1298Z" fill="#962FFE"/>
<path d="M54.9515 29.4939C53.7475 29.4939 52.6194 29.2714 51.5672 28.8252C50.5151 28.379 49.5953 27.7609 48.8052 26.9709C48.0164 26.1809 47.3942 25.2557 46.9374 24.194C46.4805 23.1322 46.2539 21.987 46.2539 20.7559C46.2539 19.5248 46.4793 18.3493 46.9288 17.2635C47.3783 16.1777 47.9981 15.2335 48.7869 14.4322C49.5757 13.6308 50.4967 12.9963 51.5489 12.5324C52.601 12.0685 53.734 11.8359 54.9502 11.8359C56.0832 11.8359 57.1599 12.0407 58.1765 12.4515C59.1931 12.8623 60.0701 13.4463 60.8062 14.2059C61.0401 14.4587 61.2153 14.7305 61.3316 15.0199C61.448 15.3094 61.5068 15.5925 61.5068 15.8706C61.5068 16.1841 61.4394 16.4647 61.3047 16.7111C61.17 16.9589 61.0034 17.1662 60.805 17.3356C60.6065 17.5049 60.3934 17.6339 60.1656 17.7249C59.9378 17.8159 59.7296 17.8601 59.5434 17.8601C59.345 17.8601 59.1514 17.8272 58.9653 17.7603C58.7779 17.6945 58.6027 17.606 58.4398 17.4973C58.2757 17.3886 58.1152 17.2736 57.9572 17.1535C57.7992 17.0335 57.6498 16.9184 57.5102 16.8097C57.008 16.4482 56.5254 16.2093 56.0636 16.0943C55.6019 15.9793 55.1082 15.9224 54.5816 15.9224C53.9618 15.9464 53.3898 16.0968 52.8631 16.3749C52.3377 16.653 51.8808 17.0107 51.4962 17.4518C51.1104 17.8917 50.8066 18.3897 50.5849 18.9446C50.3632 19.4995 50.2518 20.0734 50.2518 20.6636C50.2518 21.2539 50.3632 21.8366 50.5849 22.4092C50.8066 22.9818 51.1165 23.4924 51.5146 23.9386C51.9114 24.3848 52.3854 24.7438 52.9342 25.0155C53.4829 25.2873 54.0794 25.4225 54.7224 25.4225C55.2136 25.4225 55.6803 25.3619 56.1249 25.2418C56.5695 25.1217 57.03 24.8866 57.5102 24.5365C57.8139 24.3077 58.1299 24.0777 58.457 23.8489C58.784 23.6201 59.1527 23.4988 59.5618 23.4874C59.7602 23.4874 59.9733 23.5354 60.2023 23.6327C60.4302 23.7288 60.6408 23.8615 60.8331 24.0309C61.0254 24.2003 61.1871 24.405 61.3157 24.6465C61.4443 24.8879 61.508 25.1596 61.508 25.4605C61.508 25.7385 61.4492 26.0242 61.3329 26.32C61.2153 26.6158 61.0401 26.8837 60.8074 27.1251C60.0713 27.9088 59.1943 28.5004 58.1777 28.8985C57.1611 29.2967 56.0857 29.4951 54.9515 29.4951V29.4939Z" fill="white"/>
<path d="M63.4609 20.68C63.4609 19.4615 63.6863 18.3163 64.1358 17.2419C64.5853 16.1688 65.199 15.2309 65.9768 14.4283C66.7533 13.6269 67.6597 12.9924 68.6947 12.5285C69.7297 12.0646 70.8369 11.832 72.0176 11.832C73.1984 11.832 74.3081 12.0646 75.3492 12.5285C76.3891 12.9924 77.2955 13.6269 78.0671 14.4283C78.8388 15.2309 79.4487 16.1688 79.8995 17.2419C80.349 18.315 80.5744 19.4615 80.5744 20.68C80.5744 21.8984 80.349 23.0411 79.8995 24.1092C79.45 25.176 78.8388 26.1088 78.0671 26.9038C77.2955 27.7001 76.3891 28.3309 75.3492 28.7948C74.3093 29.2599 73.1984 29.4912 72.0176 29.4912C70.8369 29.4912 69.7297 29.2586 68.6947 28.7948C67.6597 28.3309 66.7545 27.7001 65.9768 26.9038C65.199 26.1075 64.5853 25.176 64.1358 24.1092C63.6863 23.0411 63.4609 21.8984 63.4609 20.68ZM67.3535 20.68C67.3535 21.3435 67.476 21.9642 67.7221 22.5431C67.9683 23.122 68.3015 23.6288 68.7228 24.0624C69.1442 24.4972 69.6366 24.841 70.1988 25.0938C70.761 25.3466 71.3636 25.4743 72.0079 25.4743C72.6521 25.4743 73.2756 25.3479 73.8439 25.0938C74.4122 24.841 74.907 24.4972 75.3284 24.0624C75.7497 23.6276 76.0804 23.122 76.3205 22.5431C76.5606 21.9642 76.6806 21.3435 76.6806 20.68C76.6806 20.0164 76.5581 19.3957 76.3119 18.8168C76.0657 18.2379 75.7326 17.7311 75.3112 17.2975C74.8899 16.8627 74.3951 16.5227 73.8267 16.275C73.2584 16.0285 72.6533 15.9046 72.0091 15.9046C71.3648 15.9046 70.7757 16.0285 70.2086 16.275C69.6402 16.5227 69.1454 16.8627 68.7241 17.2975C68.3027 17.7323 67.9683 18.2379 67.7234 18.8168C67.4772 19.3957 67.3547 20.0176 67.3547 20.68H67.3535Z" fill="white"/>
<path d="M82.7708 20.6814C82.7708 19.4629 82.9961 18.3178 83.4456 17.2434C83.8952 16.1703 84.5088 15.2324 85.2866 14.4297C86.0631 13.6284 86.9695 12.9939 88.0045 12.53C89.0395 12.0661 90.1467 11.8335 91.3275 11.8335C92.5082 11.8335 93.5126 12.0357 94.2377 12.4402C94.9628 12.8447 95.547 13.4261 95.9904 14.1858V7.5271C95.9904 7.23764 96.037 6.96589 96.1313 6.71309C96.2244 6.4603 96.3591 6.24036 96.5342 6.05203C96.7094 5.86496 96.9139 5.71707 97.1479 5.60836C97.3818 5.49966 97.639 5.44531 97.9195 5.44531C98.2 5.44531 98.4597 5.49966 98.6998 5.60836C98.9398 5.71707 99.1468 5.86496 99.322 6.05203C99.4971 6.2391 99.6343 6.45903 99.7335 6.71309C99.8327 6.96589 99.883 7.23764 99.883 7.5271V20.7712C99.8707 21.977 99.638 23.1083 99.1811 24.1637C98.7255 25.2191 98.1118 26.1419 97.3402 26.9319C96.5685 27.7218 95.6658 28.3463 94.6309 28.8038C93.5959 29.2626 92.4947 29.4914 91.3262 29.4914C90.1578 29.4914 89.0382 29.2589 88.0033 28.795C86.9683 28.3311 86.0631 27.7004 85.2853 26.904C84.5076 26.1077 83.8939 25.1762 83.4444 24.1094C82.9949 23.0413 82.7695 21.8986 82.7695 20.6802L82.7708 20.6814ZM86.6633 20.6814C86.6633 21.345 86.7858 21.9656 87.032 22.5445C87.2782 23.1235 87.6113 23.6303 88.0327 24.0639C88.454 24.4987 88.9464 24.8425 89.5086 25.0953C90.0708 25.3481 90.6734 25.4757 91.3177 25.4757C91.9619 25.4757 92.5854 25.3493 93.1537 25.0953C93.722 24.8425 94.2168 24.4987 94.6382 24.0639C95.0595 23.6291 95.3902 23.1235 95.6303 22.5445C95.8704 21.9656 95.9904 21.345 95.9904 20.6814C95.9904 20.0178 95.8679 19.3972 95.6217 18.8183C95.3755 18.2394 95.0424 17.7325 94.621 17.299C94.1997 16.8642 93.7049 16.5242 93.1365 16.2764C92.5682 16.0299 91.9632 15.9061 91.3189 15.9061C90.6746 15.9061 90.0855 16.0299 89.5184 16.2764C88.9501 16.5242 88.4552 16.8642 88.0339 17.299C87.6125 17.7338 87.2782 18.2394 87.0332 18.8183C86.787 19.3972 86.6645 20.0191 86.6645 20.6814H86.6633Z" fill="white"/>
<path d="M102.348 20.68C102.348 19.4615 102.573 18.3163 103.023 17.2419C103.472 16.1688 104.089 15.2309 104.872 14.4283C105.655 13.6269 106.564 12.9924 107.599 12.5285C108.634 12.0646 109.741 11.832 110.922 11.832C112.102 11.832 113.195 12.0646 114.235 12.5285C115.275 12.9924 116.181 13.6269 116.953 14.4283C117.724 15.2309 118.334 16.1688 118.785 17.2419C119.234 18.315 119.46 19.4615 119.46 20.68C119.46 21.8984 119.234 23.0411 118.785 24.1092C118.335 25.176 117.724 26.1088 116.953 26.9038C116.181 27.7001 115.276 28.3309 114.235 28.7948C113.195 29.2599 112.09 29.4912 110.922 29.4912C110.045 29.4912 109.215 29.3648 108.431 29.1108C107.649 28.858 106.918 28.5015 106.24 28.0427V33.4526C106.24 34.0441 106.071 34.5409 105.732 34.9453C105.393 35.3498 104.925 35.552 104.329 35.552C104.06 35.552 103.806 35.4977 103.566 35.389C103.326 35.2803 103.117 35.1324 102.936 34.9453C102.754 34.7583 102.611 34.5345 102.506 34.2754C102.4 34.0163 102.348 33.742 102.348 33.4526V20.6787V20.68ZM106.257 20.68C106.257 21.3435 106.38 21.9642 106.626 22.5431C106.871 23.122 107.204 23.6288 107.625 24.0624C108.047 24.4972 108.54 24.841 109.108 25.0938C109.675 25.3466 110.28 25.4743 110.923 25.4743C111.566 25.4743 112.171 25.3479 112.737 25.0938C113.304 24.841 113.797 24.4972 114.219 24.0624C114.64 23.6276 114.97 23.122 115.21 22.5431C115.449 21.9642 115.569 21.3435 115.569 20.68C115.569 20.0164 115.449 19.3957 115.21 18.8168C114.97 18.2379 114.64 17.7311 114.219 17.2975C113.797 16.8627 113.304 16.5227 112.737 16.275C112.17 16.0285 111.565 15.9046 110.923 15.9046C110.281 15.9046 109.675 16.0285 109.108 16.275C108.54 16.5227 108.047 16.8627 107.625 17.2975C107.204 17.7323 106.871 18.2379 106.626 18.8168C106.381 19.3957 106.257 20.0176 106.257 20.68Z" fill="#962FFE"/>
<path d="M130.217 29.4912C129.048 29.4912 127.946 29.2586 126.912 28.7948C125.877 28.3309 124.974 27.7001 124.203 26.9038C123.431 26.1075 122.82 25.176 122.37 24.1092C121.921 23.0411 121.695 21.8984 121.695 20.68C121.695 19.4615 121.921 18.3163 122.37 17.2419C122.82 16.1688 123.431 15.2309 124.203 14.4283C124.974 13.6269 125.877 12.9924 126.912 12.5285C127.947 12.0646 129.048 11.832 130.217 11.832C131.385 11.832 132.505 12.0646 133.538 12.5285C134.572 12.9924 135.476 13.6269 136.248 14.4283C137.019 15.2309 137.627 16.1688 138.071 17.2419C138.516 18.315 138.738 19.4615 138.738 20.68V27.393C138.738 27.6824 138.685 27.9517 138.58 28.1982C138.474 28.4459 138.335 28.6633 138.16 28.8491C137.984 29.0362 137.776 29.1841 137.537 29.2928C137.297 29.4015 137.038 29.4558 136.757 29.4558C136.289 29.4558 135.895 29.3231 135.574 29.0577C135.252 28.7922 135.034 28.4484 134.916 28.0263C134.238 28.4851 133.505 28.8441 132.715 29.1032C131.926 29.3623 131.093 29.4925 130.217 29.4925V29.4912ZM130.208 25.4755C130.852 25.4755 131.458 25.3491 132.026 25.0951C132.594 24.8423 133.085 24.4985 133.502 24.0637C133.918 23.6288 134.245 23.1232 134.485 22.5443C134.725 21.9654 134.845 21.3448 134.845 20.6812C134.845 20.0176 134.725 19.397 134.485 18.8181C134.245 18.2392 133.917 17.7323 133.502 17.2988C133.086 16.8652 132.594 16.524 132.026 16.2762C131.457 16.0297 130.852 15.9059 130.208 15.9059C129.564 15.9059 128.978 16.0297 128.416 16.2762C127.854 16.524 127.361 16.864 126.94 17.2988C126.519 17.7336 126.188 18.2392 125.948 18.8181C125.708 19.397 125.588 20.0189 125.588 20.6812C125.588 21.3435 125.708 21.9654 125.948 22.5443C126.188 23.1232 126.516 23.6301 126.931 24.0637C127.348 24.4985 127.837 24.8423 128.399 25.0951C128.961 25.3479 129.564 25.4755 130.208 25.4755Z" fill="#962FFE"/>
<path d="M141.238 8.61154C141.238 8.32209 141.291 8.05412 141.396 7.80638C141.502 7.55864 141.645 7.34502 141.826 7.16427C142.007 6.98352 142.214 6.83816 142.448 6.72946C142.682 6.62076 142.933 6.56641 143.203 6.56641C143.472 6.56641 143.73 6.61823 143.975 6.72061C144.22 6.823 144.436 6.96836 144.623 7.15543C144.81 7.3425 144.958 7.5599 145.07 7.80638C145.181 8.05412 145.236 8.32209 145.236 8.61154V11.525H151.39C151.658 11.525 151.913 11.5794 152.153 11.6881C152.393 11.7968 152.6 11.9409 152.775 12.1229C152.95 12.3037 153.091 12.5185 153.196 12.765C153.302 13.0127 153.354 13.2744 153.354 13.5525C153.354 13.8306 153.302 14.0682 153.196 14.3033C153.091 14.5384 152.951 14.7444 152.775 14.9188C152.6 15.0933 152.392 15.2323 152.153 15.3347C151.913 15.4371 151.659 15.4889 151.39 15.4889H145.236V20.7724C145.236 21.436 145.353 22.0541 145.586 22.6266C145.82 23.1992 146.141 23.701 146.55 24.1283C146.959 24.5568 147.441 24.8917 147.997 25.1331C148.552 25.3746 149.157 25.4946 149.812 25.4946C150.384 25.4946 150.917 25.41 151.408 25.2418C151.899 25.0725 152.355 24.802 152.775 24.4278C153.009 24.2231 153.237 24.0575 153.458 23.9298C153.68 23.8034 153.944 23.7402 154.247 23.7402C154.469 23.7402 154.686 23.7882 154.896 23.8856C155.107 23.9816 155.293 24.1182 155.457 24.2926C155.62 24.467 155.753 24.673 155.852 24.9081C155.951 25.1432 156.001 25.3935 156.001 25.659C156.001 25.9724 155.942 26.2745 155.826 26.564C155.71 26.8534 155.533 27.1125 155.301 27.3426C154.564 28.0669 153.732 28.6091 152.802 28.9706C151.872 29.3321 150.877 29.5141 149.812 29.5141C148.619 29.5141 147.503 29.2879 146.463 28.8354C145.422 28.3829 144.517 27.7622 143.746 26.9722C142.974 26.1822 142.363 25.2532 141.913 24.1851C141.462 23.1183 141.238 21.9694 141.238 20.7382V8.61533V8.61154Z" fill="#962FFE"/>
</svg>
